<svg width="148" height="32" viewBox="0 0 148 32" fill="none" xmlns="http://www.w3.org/2000/svg">
<g clip-path="url(#clip0_37_145)">
<g filter="url(#filter0_ii_37_145)">
<path d="M5.93205 6.944V12.864H16.3V17.024H5.93205V25.184H0.748047V2.784H17.676V6.944H5.93205Z" fill="#111827"/>
<path d="M25.2895 10.24C25.8869 9.40797 26.6869 8.77865 27.6895 8.35198C28.7135 7.92531 29.8869 7.71198 31.2095 7.71198V12.32C30.6549 12.2773 30.2815 12.256 30.0895 12.256C28.6602 12.256 27.5402 12.6613 26.7295 13.472C25.9189 14.2613 25.5135 15.456 25.5135 17.056V25.184H20.5215V7.96798H25.2895V10.24Z" fill="#111827"/>
<path d="M50.8842 16.64C50.8842 16.704 50.8522 17.152 50.7882 17.984H37.7642C37.9989 19.0507 38.5536 19.8933 39.4282 20.512C40.3029 21.1307 41.3909 21.44 42.6922 21.44C43.5882 21.44 44.3776 21.312 45.0602 21.056C45.7642 20.7787 46.4149 20.352 47.0122 19.776L49.6682 22.656C48.0469 24.512 45.6789 25.44 42.5642 25.44C40.6229 25.44 38.9056 25.0667 37.4122 24.32C35.9189 23.552 34.7669 22.496 33.9562 21.152C33.1456 19.808 32.7402 18.2827 32.7402 16.576C32.7402 14.8907 33.1349 13.376 33.9242 12.032C34.7349 10.6667 35.8336 9.61065 37.2202 8.86398C38.6282 8.09598 40.1962 7.71198 41.9242 7.71198C43.6096 7.71198 45.1349 8.07465 46.5002 8.79998C47.8656 9.52531 48.9322 10.5707 49.7002 11.936C50.4896 13.28 50.8842 14.848 50.8842 16.64ZM41.9562 11.488C40.8256 11.488 39.8762 11.808 39.1082 12.448C38.3402 13.088 37.8709 13.9627 37.7002 15.072H46.1802C46.0096 13.984 45.5402 13.12 44.7722 12.48C44.0042 11.8187 43.0656 11.488 41.9562 11.488Z" fill="#111827"/>
<path d="M71.0717 16.64C71.0717 16.704 71.0398 17.152 70.9757 17.984H57.9517C58.1864 19.0507 58.7411 19.8933 59.6157 20.512C60.4904 21.1307 61.5784 21.44 62.8797 21.44C63.7757 21.44 64.5651 21.312 65.2478 21.056C65.9518 20.7787 66.6024 20.352 67.1997 19.776L69.8558 22.656C68.2344 24.512 65.8664 25.44 62.7517 25.44C60.8104 25.44 59.0931 25.0667 57.5997 24.32C56.1064 23.552 54.9544 22.496 54.1437 21.152C53.3331 19.808 52.9277 18.2827 52.9277 16.576C52.9277 14.8907 53.3224 13.376 54.1117 12.032C54.9224 10.6667 56.0211 9.61065 57.4077 8.86398C58.8157 8.09598 60.3837 7.71198 62.1117 7.71198C63.7971 7.71198 65.3224 8.07465 66.6877 8.79998C68.0531 9.52531 69.1198 10.5707 69.8877 11.936C70.6771 13.28 71.0717 14.848 71.0717 16.64ZM62.1437 11.488C61.0131 11.488 60.0637 11.808 59.2957 12.448C58.5277 13.088 58.0584 13.9627 57.8877 15.072H66.3677C66.1971 13.984 65.7277 13.12 64.9597 12.48C64.1917 11.8187 63.2531 11.488 62.1437 11.488Z" fill="#111827"/>
<path d="M104.978 7.71198C106.578 7.71198 108.029 8.0853 109.33 8.83197C110.653 9.5573 111.688 10.592 112.434 11.936C113.181 13.2587 113.554 14.8053 113.554 16.576C113.554 18.3467 113.181 19.904 112.434 21.248C111.688 22.5707 110.653 23.6053 109.33 24.352C108.029 25.0773 106.578 25.44 104.978 25.44C102.781 25.44 101.053 24.7467 99.7947 23.36V31.392H94.8027V7.96798H99.5707V9.95197C100.808 8.45864 102.61 7.71198 104.978 7.71198ZM104.114 21.344C105.394 21.344 106.44 20.9173 107.25 20.064C108.082 19.1893 108.498 18.0267 108.498 16.576C108.498 15.1253 108.082 13.9733 107.25 13.12C106.44 12.2453 105.394 11.808 104.114 11.808C102.834 11.808 101.778 12.2453 100.946 13.12C100.136 13.9733 99.7307 15.1253 99.7307 16.576C99.7307 18.0267 100.136 19.1893 100.946 20.064C101.778 20.9173 102.834 21.344 104.114 21.344Z" fill="#111827"/>
<path d="M116.896 1.44H121.888V25.184H116.896V1.44Z" fill="#111827"/>
<path d="M126.52 7.968H131.512V25.184H126.52V7.968ZM129.016 5.568C128.099 5.568 127.352 5.30133 126.776 4.768C126.2 4.23467 125.912 3.57333 125.912 2.784C125.912 1.99467 126.2 1.33333 126.776 0.800001C127.352 0.266667 128.099 0 129.016 0C129.933 0 130.68 0.256001 131.256 0.768002C131.832 1.28 132.12 1.92 132.12 2.688C132.12 3.52 131.832 4.21333 131.256 4.768C130.68 5.30133 129.933 5.568 129.016 5.568Z" fill="#111827"/>
<path d="M147.25 24.352C146.759 24.7147 146.151 24.992 145.426 25.184C144.722 25.3547 143.975 25.44 143.186 25.44C141.138 25.44 139.549 24.9173 138.418 23.872C137.309 22.8267 136.754 21.2907 136.754 19.264V12.192H134.098V8.35197H136.754V4.15997H141.746V8.35197H146.034V12.192H141.746V19.2C141.746 19.9253 141.927 20.4907 142.29 20.896C142.674 21.28 143.207 21.472 143.89 21.472C144.679 21.472 145.351 21.2587 145.906 20.832L147.25 24.352Z" fill="#111827"/>
<path fill-rule="evenodd" clip-rule="evenodd" d="M82.1083 25.568C80.3377 25.568 78.6203 25.3333 76.9563 24.864C75.3137 24.3733 73.991 23.744 72.9883 22.976L74.7483 19.072C75.7083 19.776 76.8497 20.3413 78.1724 20.768C79.495 21.1947 80.8177 21.408 82.1403 21.408C83.6123 21.408 84.7003 21.1947 85.4043 20.768C86.1083 20.32 86.4603 19.7333 86.4603 19.008C86.4603 18.4747 86.247 18.0373 85.8203 17.696C85.415 17.3333 84.8817 17.0453 84.2203 16.832L82.8443 16.4702L84.2203 12.1236C85.5829 12.4664 86.7242 12.8092 87.6444 13.152C88.7323 13.5573 89.6603 14.1973 90.4283 15.072C91.2177 15.9467 91.6123 17.1307 91.6123 18.624C91.6123 19.904 91.2497 21.0773 90.5243 22.144C89.8203 23.1893 88.7537 24.0213 87.3244 24.64C85.895 25.2587 84.1563 25.568 82.1083 25.568Z" fill="url(#paint0_linear_37_145)"/>
<path fill-rule="evenodd" clip-rule="evenodd" d="M77.4035 14.912C76.3154 14.5067 75.3768 13.856 74.5874 12.96C73.8194 12.064 73.4355 10.8693 73.4355 9.37602C73.4355 8.07469 73.7875 6.90135 74.4916 5.85602C75.1956 4.78935 76.2516 3.94669 77.6595 3.32802C79.0889 2.70935 80.8275 2.40002 82.8755 2.40002C84.3049 2.40002 85.7022 2.57069 87.0675 2.91202C88.4329 3.25335 89.6275 3.74402 90.6515 4.38402L89.0515 8.32002C86.9822 7.14669 84.9129 6.56002 82.8435 6.56002C81.3929 6.56002 80.3155 6.79469 79.6115 7.26402C78.9289 7.73335 78.5874 8.35202 78.5874 9.12002C78.5874 9.88802 78.9822 10.464 79.7715 10.848L80.9849 11.196L79.7715 15.6625C78.8644 15.4123 78.075 15.1622 77.4035 14.912Z" fill="url(#paint1_linear_37_145)"/>
</g>
</g>
<defs>
<filter id="filter0_ii_37_145" x="-0.251953" y="-1" width="148.502" height="33.392" filterUnits="userSpaceOnUse" color-interpolation-filters="sRGB">
<feFlood flood-opacity="0" result="BackgroundImageFix"/>
<feBlend mode="normal" in="SourceGraphic" in2="BackgroundImageFix" result="shape"/>
<feColorMatrix in="SourceAlpha" type="matrix" values="0 0 0 0 0 0 0 0 0 0 0 0 0 0 0 0 0 0 127 0" result="hardAlpha"/>
<feOffset dx="1" dy="1"/>
<feGaussianBlur stdDeviation="2"/>
<feComposite in2="hardAlpha" operator="arithmetic" k2="-1" k3="1"/>
<feColorMatrix type="matrix" values="0 0 0 0 1 0 0 0 0 1 0 0 0 0 1 0 0 0 0.4 0"/>
<feBlend mode="normal" in2="shape" result="effect1_innerShadow_37_145"/>
<feColorMatrix in="SourceAlpha" type="matrix" values="0 0 0 0 0 0 0 0 0 0 0 0 0 0 0 0 0 0 127 0" result="hardAlpha"/>
<feOffset dx="-1" dy="-1"/>
<feGaussianBlur stdDeviation="2"/>
<feComposite in2="hardAlpha" operator="arithmetic" k2="-1" k3="1"/>
<feColorMatrix type="matrix" values="0 0 0 0 0 0 0 0 0 0 0 0 0 0 0 0 0 0 0.25 0"/>
<feBlend mode="normal" in2="effect1_innerShadow_37_145" result="effect2_innerShadow_37_145"/>
</filter>
<linearGradient id="paint0_linear_37_145" x1="0.748321" y1="15.696" x2="147.25" y2="15.696" gradientUnits="userSpaceOnUse">
<stop offset="0.33" stop-color="#4F46E5"/>
<stop offset="0.5" stop-color="#38BDF8"/>
<stop offset="0.66" stop-color="#4F46E5"/>
</linearGradient>
<linearGradient id="paint1_linear_37_145" x1="0.74748" y1="15.696" x2="147.249" y2="15.696" gradientUnits="userSpaceOnUse">
<stop offset="0.33" stop-color="#4F46E5"/>
<stop offset="0.5" stop-color="#38BDF8"/>
<stop offset="0.66" stop-color="#4F46E5"/>
</linearGradient>
<clipPath id="clip0_37_145">
<rect width="148" height="32" fill="white"/>
</clipPath>
</defs>
</svg>
