<svg width="147" height="32" viewBox="0 0 147 32" fill="none" xmlns="http://www.w3.org/2000/svg">
<path d="M5.184 7.336V13.256H15.552V17.416H5.184V25.576H0V3.176H16.928V7.336H5.184Z" fill="#111827"/>
<path d="M24.541 10.632C25.1383 9.8 25.9383 9.17067 26.941 8.744C27.965 8.31733 29.1383 8.104 30.461 8.104V12.712C29.9063 12.6693 29.533 12.648 29.341 12.648C27.9117 12.648 26.7917 13.0533 25.981 13.864C25.1703 14.6533 24.765 15.848 24.765 17.448V25.576H19.773V8.36H24.541V10.632Z" fill="#111827"/>
<path d="M50.137 17.032C50.137 17.096 50.105 17.544 50.041 18.376H37.017C37.2517 19.4427 37.8063 20.2853 38.681 20.904C39.5557 21.5227 40.6437 21.832 41.945 21.832C42.841 21.832 43.6303 21.704 44.313 21.448C45.017 21.1707 45.6677 20.744 46.265 20.168L48.921 23.048C47.2997 24.904 44.9317 25.832 41.817 25.832C39.8757 25.832 38.1583 25.4587 36.665 24.712C35.1717 23.944 34.0197 22.888 33.209 21.544C32.3983 20.2 31.993 18.6747 31.993 16.968C31.993 15.2827 32.3877 13.768 33.177 12.424C33.9877 11.0587 35.0863 10.0027 36.473 9.256C37.881 8.488 39.449 8.104 41.177 8.104C42.8623 8.104 44.3877 8.46667 45.753 9.192C47.1183 9.91733 48.185 10.9627 48.953 12.328C49.7423 13.672 50.137 15.24 50.137 17.032ZM41.209 11.88C40.0783 11.88 39.129 12.2 38.361 12.84C37.593 13.48 37.1237 14.3547 36.953 15.464H45.433C45.2623 14.376 44.793 13.512 44.025 12.872C43.257 12.2107 42.3183 11.88 41.209 11.88Z" fill="#111827"/>
<path d="M70.3245 17.032C70.3245 17.096 70.2925 17.544 70.2285 18.376H57.2045C57.4392 19.4427 57.9938 20.2853 58.8685 20.904C59.7432 21.5227 60.8312 21.832 62.1325 21.832C63.0285 21.832 63.8178 21.704 64.5005 21.448C65.2045 21.1707 65.8552 20.744 66.4525 20.168L69.1085 23.048C67.4872 24.904 65.1192 25.832 62.0045 25.832C60.0632 25.832 58.3458 25.4587 56.8525 24.712C55.3592 23.944 54.2072 22.888 53.3965 21.544C52.5858 20.2 52.1805 18.6747 52.1805 16.968C52.1805 15.2827 52.5752 13.768 53.3645 12.424C54.1752 11.0587 55.2738 10.0027 56.6605 9.256C58.0685 8.488 59.6365 8.104 61.3645 8.104C63.0498 8.104 64.5752 8.46667 65.9405 9.192C67.3058 9.91733 68.3725 10.9627 69.1405 12.328C69.9298 13.672 70.3245 15.24 70.3245 17.032ZM61.3965 11.88C60.2658 11.88 59.3165 12.2 58.5485 12.84C57.7805 13.48 57.3112 14.3547 57.1405 15.464H65.6205C65.4498 14.376 64.9805 13.512 64.2125 12.872C63.4445 12.2107 62.5058 11.88 61.3965 11.88Z" fill="#111827"/>
<path d="M104.23 8.104C105.83 8.104 107.281 8.47733 108.582 9.224C109.905 9.94933 110.94 10.984 111.686 12.328C112.433 13.6507 112.806 15.1973 112.806 16.968C112.806 18.7387 112.433 20.296 111.686 21.64C110.94 22.9627 109.905 23.9973 108.582 24.744C107.281 25.4693 105.83 25.832 104.23 25.832C102.033 25.832 100.305 25.1387 99.0462 23.752V31.784H94.0543V8.36H98.8223V10.344C100.06 8.85067 101.862 8.104 104.23 8.104ZM103.366 21.736C104.646 21.736 105.692 21.3093 106.502 20.456C107.334 19.5813 107.75 18.4187 107.75 16.968C107.75 15.5173 107.334 14.3653 106.502 13.512C105.692 12.6373 104.646 12.2 103.366 12.2C102.086 12.2 101.03 12.6373 100.198 13.512C99.3876 14.3653 98.9823 15.5173 98.9823 16.968C98.9823 18.4187 99.3876 19.5813 100.198 20.456C101.03 21.3093 102.086 21.736 103.366 21.736Z" fill="#111827"/>
<path d="M116.148 1.832H121.14V25.576H116.148V1.832Z" fill="#111827"/>
<path d="M125.773 8.36H130.765V25.576H125.773V8.36ZM128.269 5.96C127.352 5.96 126.605 5.69333 126.029 5.16C125.453 4.62667 125.165 3.96533 125.165 3.176C125.165 2.38667 125.453 1.72533 126.029 1.192C126.605 0.658665 127.352 0.391998 128.269 0.391998C129.186 0.391998 129.933 0.647999 130.509 1.16C131.085 1.672 131.373 2.312 131.373 3.08C131.373 3.912 131.085 4.60533 130.509 5.16C129.933 5.69333 129.186 5.96 128.269 5.96Z" fill="#111827"/>
<path d="M146.502 24.744C146.011 25.1067 145.403 25.384 144.678 25.576C143.974 25.7467 143.227 25.832 142.438 25.832C140.39 25.832 138.801 25.3093 137.67 24.264C136.561 23.2187 136.006 21.6827 136.006 19.656V12.584H133.35V8.744H136.006V4.552H140.998V8.744H145.286V12.584H140.998V19.592C140.998 20.3173 141.179 20.8827 141.542 21.288C141.926 21.672 142.459 21.864 143.142 21.864C143.931 21.864 144.603 21.6507 145.158 21.224L146.502 24.744Z" fill="#111827"/>
<path fill-rule="evenodd" clip-rule="evenodd" d="M81.36 25.96C79.5893 25.96 77.872 25.7253 76.208 25.256C74.5653 24.7653 73.2427 24.136 72.24 23.368L74 19.464C74.96 20.168 76.1013 20.7333 77.424 21.16C78.7467 21.5867 80.0693 21.8 81.392 21.8C82.864 21.8 83.952 21.5867 84.656 21.16C85.36 20.712 85.712 20.1253 85.712 19.4C85.712 18.8667 85.4987 18.4293 85.072 18.088C84.6667 17.7253 84.1333 17.4373 83.472 17.224L82.096 16.8622L83.472 12.5156C84.8346 12.8584 85.9759 13.2012 86.896 13.544C87.984 13.9493 88.912 14.5893 89.68 15.464C90.4693 16.3387 90.864 17.5227 90.864 19.016C90.864 20.296 90.5013 21.4693 89.776 22.536C89.072 23.5813 88.0053 24.4133 86.576 25.032C85.1467 25.6507 83.408 25.96 81.36 25.96Z" fill="url(#paint0_linear_80_162)"/>
<path fill-rule="evenodd" clip-rule="evenodd" d="M76.656 15.304C75.568 14.8987 74.6293 14.248 73.84 13.352C73.072 12.456 72.688 11.2613 72.688 9.768C72.688 8.46667 73.04 7.29333 73.744 6.248C74.448 5.18133 75.504 4.33867 76.912 3.72C78.3413 3.10133 80.08 2.792 82.128 2.792C83.5573 2.792 84.9547 2.96267 86.32 3.304C87.6853 3.64533 88.88 4.136 89.904 4.776L88.304 8.712C86.2347 7.53867 84.1653 6.952 82.096 6.952C80.6453 6.952 79.568 7.18667 78.864 7.656C78.1813 8.12533 77.84 8.744 77.84 9.512C77.84 10.28 78.2347 10.856 79.024 11.24L80.2374 11.588L79.024 16.0545C78.1168 15.8043 77.3275 15.5542 76.656 15.304Z" fill="url(#paint1_linear_80_162)"/>
<defs>
<linearGradient id="paint0_linear_80_162" x1="0" y1="16.088" x2="146.502" y2="16.088" gradientUnits="userSpaceOnUse">
<stop offset="0.33" stop-color="#4F46E5"/>
<stop offset="0.5" stop-color="#38BDF8"/>
<stop offset="0.66" stop-color="#4F46E5"/>
</linearGradient>
<linearGradient id="paint1_linear_80_162" x1="0" y1="16.088" x2="146.502" y2="16.088" gradientUnits="userSpaceOnUse">
<stop offset="0.33" stop-color="#4F46E5"/>
<stop offset="0.5" stop-color="#38BDF8"/>
<stop offset="0.66" stop-color="#4F46E5"/>
</linearGradient>
</defs>
</svg>
