<svg version="1.2" xmlns="http://www.w3.org/2000/svg" viewBox="0 0 32 32" width="32" height="32">
	<defs>
		<linearGradient id="g1" x2="1" gradientUnits="userSpaceOnUse" gradientTransform="matrix(146.502,0,0,105.758,-65,17.088)">
			<stop offset=".33" stop-color="#4f46e5"/>
			<stop offset=".5" stop-color="#38bdf8"/>
			<stop offset=".66" stop-color="#4f46e5"/>
		</linearGradient>
		<linearGradient id="g2" x2="1" gradientUnits="userSpaceOnUse" gradientTransform="matrix(146.502,0,0,112.859,-65,17.088)">
			<stop offset=".33" stop-color="#4f46e5"/>
			<stop offset=".5" stop-color="#38bdf8"/>
			<stop offset=".66" stop-color="#4f46e5"/>
		</linearGradient>
	</defs>
	<style>
		.s0 { fill: url(#g1) } 
		.s1 { fill: url(#g2) } 
	</style>
	<rect width="32" height="32" fill="#F9FAFB" rx="6"/>
	<path fill-rule="evenodd" class="s0" d="m16.36 26.96q-2.66 0-5.15-0.7-2.47-0.74-3.97-1.89l1.76-3.91q1.44 1.06 3.42 1.7 1.99 0.64 3.97 0.64 2.21 0 3.27-0.64 1.05-0.67 1.05-1.76 0-0.8-0.64-1.31-0.61-0.55-1.6-0.87l-1.37-0.36 1.37-4.34q2.05 0.51 3.43 1.02 1.63 0.61 2.78 1.92 1.18 1.32 1.18 3.56 0 1.92-1.08 3.52-1.06 1.56-3.2 2.49-2.15 0.93-5.22 0.93z"/>
	<path fill-rule="evenodd" class="s1" d="m11.66 16.3q-1.64-0.6-2.82-1.95-1.15-1.34-1.15-3.58 0-1.95 1.05-3.52 1.06-1.6 3.17-2.53 2.15-0.93 5.22-0.93 2.14 0 4.19 0.51 2.05 0.52 3.58 1.48l-1.6 3.93q-3.1-1.76-6.2-1.76-2.18 0-3.24 0.71-1.02 0.7-1.02 1.85 0 1.15 1.18 1.73l1.22 0.35-1.22 4.46q-1.36-0.37-2.36-0.75z"/>
</svg>