<svg width="128" height="128" viewBox="0 0 128 128" fill="none" xmlns="http://www.w3.org/2000/svg">
<rect width="128" height="128" rx="8" fill="white"/>
<g clip-path="url(#clip0_102_18)">
<path fill-rule="evenodd" clip-rule="evenodd" d="M63.0718 120C54.5118 120 46.2099 118.865 38.1657 116.597C30.2245 114.225 23.8307 111.182 18.9834 107.47L27.4917 88.5967C32.1326 92 37.6499 94.7328 44.0442 96.7956C50.4385 98.8584 56.8322 99.8895 63.2265 99.8895C70.3425 99.8895 75.6022 98.8584 79.0055 96.7956C82.4088 94.6298 84.1105 91.7936 84.1105 88.2873C84.1105 85.7092 83.0793 83.5947 81.0166 81.9447C79.0572 80.1914 76.4787 78.7991 73.2818 77.768L66.6298 76.0189L73.2818 55.0063C79.8689 56.6635 85.3863 58.3207 89.8343 59.9779C95.0939 61.9372 99.5801 65.0311 103.293 69.2597C107.109 73.4882 109.017 79.2119 109.017 86.4309C109.017 92.6188 107.263 98.2908 103.757 103.448C100.354 108.501 95.1969 112.523 88.2873 115.514C81.3777 118.505 72.9724 120 63.0718 120Z" fill="url(#paint0_linear_102_18)"/>
<path fill-rule="evenodd" clip-rule="evenodd" d="M40.331 68.4862C35.0713 66.5269 30.5334 63.3812 26.7177 59.0497C23.005 54.7182 21.1487 48.9428 21.1487 41.7238C21.1487 35.4328 22.8503 29.7606 26.2537 24.7072C29.657 19.5506 34.7619 15.477 41.5686 12.4862C48.4782 9.49538 56.8835 8 66.784 8C73.6936 8 80.449 8.82506 87.0492 10.4751C93.6494 12.1252 99.4249 14.4972 104.375 17.5912L96.6404 36.6188C86.6369 30.9466 76.6329 28.1105 66.6293 28.1105C59.6163 28.1105 54.4083 29.245 51.005 31.5138C47.7047 33.7827 46.0547 36.7735 46.0547 40.4862C46.0547 44.1989 47.9628 46.9834 51.7785 48.8398L57.6444 50.5221L51.7785 72.1143C47.3929 70.9048 43.5772 69.6957 40.331 68.4862Z" fill="url(#paint1_linear_102_18)"/>
</g>
<defs>
<linearGradient id="paint0_linear_102_18" x1="-330.243" y1="72.2762" x2="377.985" y2="72.2762" gradientUnits="userSpaceOnUse">
<stop offset="0.33" stop-color="#4F46E5"/>
<stop offset="0.5" stop-color="#38BDF8"/>
<stop offset="0.66" stop-color="#4F46E5"/>
</linearGradient>
<linearGradient id="paint1_linear_102_18" x1="-330.244" y1="72.2763" x2="377.984" y2="72.2763" gradientUnits="userSpaceOnUse">
<stop offset="0.33" stop-color="#4F46E5"/>
<stop offset="0.5" stop-color="#38BDF8"/>
<stop offset="0.66" stop-color="#4F46E5"/>
</linearGradient>
<clipPath id="clip0_102_18">
<rect width="90.0332" height="112" fill="white" transform="translate(18.9834 8)"/>
</clipPath>
</defs>
</svg>
